<svg version="1.1" xmlns="http://www.w3.org/2000/svg" xmlns:xlink="http://www.w3.org/1999/xlink"  viewBox="0 0 142.841 137.643">
  <title>Alice</title>
    <g>
    <linearGradient
       y2="137.643"
       x2="71.42"
       y1="0"
       x1="71.42"
       gradientUnits="userSpaceOnUse"
       id="Background">
      <stop
              id="stop924"
              offset="0"
              style="stop-color:#8e44ad;stop-opacity:1;"/>
      <stop
              id="stop926"
              offset="1"
              style="stop-color:#333333;stop-opacity:1;"/>

    </linearGradient>
    <rect
      y="0"
      x="0"
      height="137.643"
      width="142.841"
      style="fill:url(#Background);stroke-linecap:round;stroke-linejoin:round;fill-opacity:1.0" />
  </g>
  <g>
    <path
      data-name="Neck"
      fill="#A96C4F"
      d="M51.969,156.337c-.235-.111-.024-.746.342-1.59.474-1.092,1.324-2.683,2.368-4.67a20.584,20.584,0,0,1,4.25-5.439c3.219-2.981,9.759-5.1,13.36-5.99a70.528,70.528,0,0,0,9.08-2.58c1.85-1.021,4.52-3.021,5.2-4.831.369-.97.41-4.929.38-7.44v-2c2.23-.38,10.97-1.06,11.24-1.06.16,0,1.88.95,3.49,1.85-.06,2.68-.07,7.51.35,8.65.55,1.459,2.4,3.04,4.06,4.13.03,0,.81.51,1.15.7,1.12.619,6.14,1.729,9.9,2.5,2.44.509,9.49,2.759,12.7,5.119a10.013,10.013,0,0,1,1.61,1.43,45.323,45.323,0,0,1,6.42,10.443C132.369,162.814,76.869,168.167,51.969,156.337Z"
      transform="translate(-23.449 -25.821)"
    ></path>
    <path
      data-name="Shadow"
      fill="#905c43"
      d="M106.406,135.556c-2.76-1.8-4.086-3.551-4.373-4.315-.426-1.139-.416-5.973-.35-8.655-1.611-.9-3.335-1.851-3.492-1.851-.275,0-9,1.309-11.232,1.68,0,.236-.007,1.766-.006,1.844C89.334,129.384,97.9,134.384,106.406,135.556Z"
      transform="translate(-23.449 -25.821)"
    ></path>
    <path
      data-name="Top"
      fill="#A96C4F"
      d="M127.068,85.11a4.379,4.379,0,0,0-2.159-.314c.324-10.527-1.184-37.286-30.039-36.14C66.013,47.51,64.507,74.269,64.832,84.8a4.391,4.391,0,0,0-2.162.314c-3,1.278-2.988,5.745-1.228,9.979,1.539,3.7,3.906,7.639,6.481,7.718.513,1.984,1.009,3.762,1.41,5.143a17.153,17.153,0,0,0,4.5,7.6c4.577,4.423,10.99,7.48,15.53,9.259a15.12,15.12,0,0,0,11.019,0c4.541-1.779,10.956-4.837,15.534-9.261a17.164,17.164,0,0,0,4.5-7.6c.4-1.381.9-3.159,1.41-5.143,2.573-.08,4.94-4.019,6.478-7.718C130.057,90.855,130.064,86.388,127.068,85.11Z"
      transform="translate(-23.449 -25.821)"
    ></path>
  </g>
  <g>
    <path
      d="M103.688,109.118a.967.967,0,0,0-1.111-.461,42.683,42.683,0,0,1-14.909,0,.966.966,0,0,0-1.11.461,1.171,1.171,0,0,0,.021,1.02,10.224,10.224,0,0,0,8.517,5.51c.009,0,.018,0,.027,0s.018,0,.027,0a10.222,10.222,0,0,0,8.516-5.51A1.178,1.178,0,0,0,103.688,109.118Z"
      transform="translate(-23.449 -25.821)"
      fill="color"></path>
    <path
      d="M100.3,110.744a.66.66,0,0,0-.666-.213,33.168,33.168,0,0,1-8.946,0,.66.66,0,0,0-.666.213.432.432,0,0,0,.013.471,6.453,6.453,0,0,0,5.11,2.545l.017,0,.016,0a6.451,6.451,0,0,0,5.109-2.545A.432.432,0,0,0,100.3,110.744Z"
      transform="translate(-23.449 -25.821)" fill="#efebe9"></path>
  </g>
  <g>
    <path
      fill="#FDDAC5"
      d="M99.744,101.563a.271.271,0,0,0,.1-.314.237.237,0,0,0-.268-.161,25.286,25.286,0,0,1-8.474.185.243.243,0,0,0-.26.173.272.272,0,0,0,.1.307,11.793,11.793,0,0,0,4.2,1.612C96.067,103.606,98.49,102.388,99.744,101.563Z"
      transform="translate(-23.449 -25.821)"
    ></path>
  </g>
  <g>
    <linearGradient
      id="_497665"
      x1="72.34"
      y1="94.276"
      x2="79.169"
      y2="94.276"
      gradientTransform="matrix(0.999, -0.039, 0.039, 0.999, 1.102, -0.852)"
      gradientUnits="userSpaceOnUse"
    >
      <stop offset="0" stop-color="#497665"></stop>
      <stop offset="1" stop-color="#3e6456"></stop>
    </linearGradient>
      <g>
    <path
      fill="#875026"
      d="M76.736,92.973a1,1,0,0,1-.9-1.444,6.205,6.205,0,0,1,10.546-.287,1,1,0,0,1-1.728,1,4,4,0,0,0-3.467-1.8,3.907,3.907,0,0,0-3.559,1.969A1,1,0,0,1,76.736,92.973Z"
      transform="translate(-23.449 -25.821)"
    ></path>
    <path
      fill="#875026"
      d="M105.736,92.973a1,1,0,0,1-.9-1.444,6.205,6.205,0,0,1,10.546-.287,1,1,0,0,1-1.728,1,4,4,0,0,0-3.467-1.8,3.907,3.907,0,0,0-3.559,1.969A1,1,0,0,1,105.736,92.973Z"
      transform="translate(-23.449 -25.821)"
    ></path>
  </g>

  </g>
  <g>
      <g data-name="Hair__TypeC">
    <path
      fill="#E6CEA8"
      d="M106.133,38.965c-6.242-2.072-21.145-2.211-27.517,4.734a7.717,7.717,0,0,1,3.433-4.464c-3.817.336-8.5,3.58-9.064,7.425-4.773-.4-8.847,3.02-9.781,5.428a10.731,10.731,0,0,1,5.751-1.92c-14.585,9.156-9.369,37.1-.608,46.846-9.156-26.281,9.28-25.434,8.333-39.1C78.317,66.547,91,76.117,101.512,75.58c-5.729-2.334-10.254-10.367-8.531-15.7-.417,2.686,2.91,13.031,18.15,16.16,4.213.866,11.223,3.3,11.215,7.6,1.976-4.469-1.668-18.209-9.719-24.723,16.553,7.5,12.473,30.951,10.805,37.121,2.963-4.695,4.318-9.029,5.924-14.343C130.611,77.52,136.678,49.106,106.133,38.965Z"
      transform="translate(-23.449 -25.821)"
    ></path>
  </g>

    <path
      d="M84.709,84.234a1.028,1.028,0,0,1-.4-.081c-3.463-1.446-7.742-.8-9.064-.054a1.035,1.035,0,1,1-1.022-1.8c1.908-1.083,6.883-1.726,10.884-.056a1.036,1.036,0,0,1-.4,1.992Z"
      transform="translate(-23.449 -25.821)"
      fill="#E6CEA8"
    ></path>
    <path
      d="M105.459,84.234a1.036,1.036,0,0,1-.4-1.992c4-1.67,8.976-1.028,10.886.056a1.035,1.035,0,1,1-1.021,1.8c-1.323-.75-5.605-1.393-9.067.055A1.037,1.037,0,0,1,105.459,84.234Z"
      transform="translate(-23.449 -25.821)"
      fill="#E6CEA8"
    ></path>
  </g>
  <g>
    <path
      fill="#7f8c8d"
      d="M123.611,83.418c-1.686-1.568-7.969-1.58-13.77-1.58-4.384,0-8.209,1.664-10.191,4.112a20.4,20.4,0,0,0-9.73.011c-1.981-2.455-5.809-4.123-10.2-4.123-5.8,0-12.084.012-13.769,1.58-1.248,1.162-.748,3.735-.283,5.948C66.609,93.84,73.552,97.7,79.72,97.7c6.414,0,11.633-3.559,11.633-7.93a5.5,5.5,0,0,0-.26-1.656,15.606,15.606,0,0,1,7.377-.01,5.564,5.564,0,0,0-.263,1.666c0,4.371,5.218,7.93,11.634,7.93,6.168,0,13.112-3.858,14.051-8.332C124.357,87.153,124.859,84.58,123.611,83.418ZM79.72,96.547c-5.336,0-9.978-2.949-10.8-6.861-.422-2.012-.653-3.775.832-4.941,1.5-1.182,4.765-1.756,9.968-1.756,5.485,0,9.948,3.039,9.948,6.779S85.205,96.547,79.72,96.547Zm40.922-6.861c-.822,3.912-5.465,6.861-10.8,6.861-5.484,0-9.949-3.041-9.949-6.779s4.465-6.779,9.949-6.779c5.2,0,8.463.574,9.967,1.756C121.3,85.911,121.064,87.674,120.642,89.686Z"
      transform="translate(-23.449 -25.821)"
    ></path>
  </g>
  <g>
    <path
      fill="#bdc3c7"
      d="M129.351,143.468a26.1,26.1,0,0,0-7.693,17.379,158.406,158.406,0,0,1-53.635.184c-.05-.821-.392-11.833-8.081-17.789,3.22-2.981,7.953-3.752,10.1-4.342,3.168,4.615,11.237,10.728,22.5,11.187,11.821.481,22.526-4.013,26.55-11.229A30.723,30.723,0,0,1,129.351,143.468Z"
      transform="translate(-23.449 -25.821)"
    ></path>
  </g>
  <g>
    <circle cx="57.96" cy="112.687" r="1.5" fill="#2ecc71" ></circle>
    <path
      d="M86.241,142.049a1.666,1.666,0,1,1-1.666-1.666A1.665,1.665,0,0,1,86.241,142.049Z"
      transform="translate(-23.449 -25.821)"
      fill="#2ecc71"
    ></path>
    <path
      d="M90.919,144.069a1.809,1.809,0,1,1-1.809-1.811A1.81,1.81,0,0,1,90.919,144.069Z"
      transform="translate(-23.449 -25.821)"
      fill="#2ecc71"
    ></path>
    <path
      d="M96.429,144.823a1.945,1.945,0,1,1-1.944-1.945A1.945,1.945,0,0,1,96.429,144.823Z"
      transform="translate(-23.449 -25.821)"
      fill="#2ecc71"
    ></path>
    <circle cx="83.718" cy="112.687" r="1.5" fill="#2ecc71" ></circle>
    <circle cx="80.552" cy="116.109" r="1.666" fill="#2ecc71" ></circle>
    <path
      d="M97.737,144.069a1.808,1.808,0,1,0,1.807-1.811A1.808,1.808,0,0,0,97.737,144.069Z"
      transform="translate(-23.449 -25.821)"
      fill="#2ecc71"
    ></path>
    <path
      d="M94.263,144.784c-7.551,0-13.694-3.809-13.694-8.492h.555c0,4.377,5.9,7.937,13.139,7.937s13.14-3.56,13.14-7.937h.555C107.958,140.975,101.816,144.784,94.263,144.784Z"
      transform="translate(-23.449 -25.821)"
      fill="#2ecc71"
    ></path>
  </g>
  <g></g>

</svg>
