<svg version="1.1" xmlns="http://www.w3.org/2000/svg" xmlns:xlink="http://www.w3.org/1999/xlink"  viewBox="0 0 142.841 137.643">
  <title>Bob</title>
    <g>
    <linearGradient
       y2="137.643"
       x2="71.42"
       y1="0"
       x1="71.42"
       gradientUnits="userSpaceOnUse"
       id="Background">
      <stop
              id="stop924"
              offset="0"
              style="stop-color:#000000;stop-opacity:1;"/>
      <stop
              id="stop926"
              offset="1"
              style="stop-color:#f1c40f;stop-opacity:1;"/>

    </linearGradient>
    <rect
      y="0"
      x="0"
      height="137.643"
      width="142.841"
      style="fill:url(#Background);stroke-linecap:round;stroke-linejoin:round;fill-opacity:1.0" />
  </g>
  <g>
    <path d="M134.622,145.559c-1.051-3.5-5.139-4.2-5.139-4.2s-16.613-3.269-18.316-4.2c-.329-.182-.689-.4-1.054-.645-1.534-1-3.23-2.452-3.734-3.794-.392-1.046-.383-4.563-.322-7.029-1.482-.831-3.068-1.7-3.213-1.7-.252,0-17.6,2.255-19.655,2.595,0,.071,0,.146,0,.218a25.242,25.242,0,0,1-.345,5.92c-.624,1.664-3.087,3.5-4.788,4.439s-18.315,4.2-18.315,4.2-4.089.7-5.14,4.2-4.359,11.689-3.854,11.912c17.172,7.563,71.172,7.563,87.727,0C138.979,157.241,135.673,149.064,134.622,145.559Z"
          transform="translate(-23.449 -25.821)"
          fill="#E2B182" ></path>
    <path d="M109.476,136.07a7.211,7.211,0,0,1-3.1-3.358c-.392-1.046-.383-4.563-.322-7.029-1.482-.831-3.068-1.7-3.213-1.7-.252,0-17.6.536-19.653.877,0,.07,0,1.864,0,1.936,1.823,3.876,15.2,10.2,26.284,9.278Z"
          transform="translate(-23.449 -25.821)"
          fill="#d7a87c" ></path>
    <path d="M129.955,83.1c-1.471-2.038-2.984-1.471-4.22-.191.582-3.611.956-6.221.976-6.8.645-17.562-18.264-27.71-31.783-27.674h-.14c-15.935-.043-31.522,10.119-30.877,27.674.023.636.4,3.725.979,7.909-1.349-1.919-3.267-3.486-5.12-.918-3.358,4.651,1.979,14.932,2.708,15.633C63.8,100,67.349,100,67.349,100V100c1.217,7.094,2.52,13.393,3.477,14.948,2.572,4.18,12.665,13.623,23.962,14.116a.678.678,0,0,0,.07.007c.022,0,.047,0,.07,0v-.012c11.3-.493,21.393-9.936,23.964-14.116.957-1.556,2.409-7.861,3.8-14.958,1.115-.057,3.549-.289,4.552-1.256C127.976,98.029,133.314,87.748,129.955,83.1Z"
          transform="translate(-23.449 -25.821)"
          fill="#E2B182" ></path>
  </g>
  <g>
    <path
      d="M105.026,107.844c-.749-.36-1.321.1-2.047.549a14.046,14.046,0,0,1-16.359,0c-.726-.448-1.3-.909-2.047-.549-.675.322-.4.881.139,1.362,6.262,5.605,13.725,5.773,20.175,0C105.423,108.725,105.7,108.166,105.026,107.844Z"
      transform="translate(-23.449 -25.821)"
      fill="color"></path>
  </g>
  <g>
    <path
      fill="#FCCC95"
      d="M99.744,101.563a.271.271,0,0,0,.1-.314.237.237,0,0,0-.268-.161,25.286,25.286,0,0,1-8.474.185.243.243,0,0,0-.26.173.272.272,0,0,0,.1.307,11.793,11.793,0,0,0,4.2,1.612C96.067,103.606,98.49,102.388,99.744,101.563Z"
      transform="translate(-23.449 -25.821)"
    ></path>
  </g>
  <g>
    <linearGradient
      id="_2e536f"
      x1="72.34"
      y1="94.276"
      x2="79.169"
      y2="94.276"
      gradientTransform="matrix(0.999, -0.039, 0.039, 0.999, 1.102, -0.852)"
      gradientUnits="userSpaceOnUse"
    >
      <stop offset="0" stop-color="#2e536f"></stop>
      <stop offset="1" stop-color="#27475e"></stop>
    </linearGradient>
      <g>
    <path
      fill="#875026"
      d="M76.736,92.973a1,1,0,0,1-.9-1.444,6.205,6.205,0,0,1,10.546-.287,1,1,0,0,1-1.728,1,4,4,0,0,0-3.467-1.8,3.907,3.907,0,0,0-3.559,1.969A1,1,0,0,1,76.736,92.973Z"
      transform="translate(-23.449 -25.821)"
    ></path>
    <path
      fill="#ffffff"
      d="M115.374,89.882a.827.827,0,0,1,0,1.13c-.907.969-2.976,2.848-5.384,2.848-2.437,0-4.269-2.045-5.03-3.062A.881.881,0,0,1,105,89.7a7,7,0,0,1,4.994-2.665C112.4,87.034,114.466,88.912,115.374,89.882Z"
      transform="translate(-23.449 -25.821)"
    ></path>
    <path
      fill="url(#_2e536f)"
      d="M106.585,90.575a3.416,3.416,0,1,0,3.278-3.434A3.372,3.372,0,0,0,106.585,90.575Z"
      transform="translate(-23.449 -25.821)"
    ></path>
    <path
      fill="#1d1d1b"
      d="M109.75,88.594a2.01,2.01,0,1,1-1.684,2.237A1.974,1.974,0,0,1,109.75,88.594Z"
      transform="translate(-23.449 -25.821)"
    ></path>
    <path
      fill="#ffffff"
      d="M108.805,88.321a.983.983,0,1,1-.866,1.1A.992.992,0,0,1,108.805,88.321Z"
      transform="translate(-23.449 -25.821)"
    ></path>
  </g>

  </g>
  <g>
        <g>
      <path d="M66.077,56.6c-.555.17-1.636,1.929-3.494,4.679.689-9.652,9.432-16.918,18.234-14.8,0-3.622,5.8-9.289,19.205-6.566-3.1.261-7.453,1.134-8.155,2.179,4.16-1.63,15.256-.957,19.907.7,9.98,3.551,16.5,10.6,15.552,19.159a14.623,14.623,0,0,0-3.549-5.526c-.182.779,8.238,10.062.336,33.134a.429.429,0,0,1-.418.313.375.375,0,0,1-.387-.345c.332-8.665.063-14.834-.968-17.492-.575-3.268-6.982-6.309-11.477-7.62-6.255-1.824-8.483-3.759-10.348-6.22-.214,1.906,2.161,4.459,3.486,6-7.594-.5-9.355-3.422-11.486-5.334.507,3.871,5.166,8.834,10.161,10.668-7.8.1-17.377-3.985-20.254-10.5C81.77,62.3,76.481,69.588,70.751,73.171a7.106,7.106,0,0,0-3.325,5.612,100.067,100.067,0,0,0,.027,11.571.311.311,0,0,1-.313.291.335.335,0,0,1-.357-.242C65.568,85.344,60.015,71.53,66.077,56.6Z"
            transform="translate(-23.449 -25.821)"
            fill="#A56B46" ></path>
    </g>

    <path
      d="M84.709,84.234a1.028,1.028,0,0,1-.4-.081c-3.463-1.446-7.742-.8-9.064-.054a1.035,1.035,0,1,1-1.022-1.8c1.908-1.083,6.883-1.726,10.884-.056a1.036,1.036,0,0,1-.4,1.992Z"
      transform="translate(-23.449 -25.821)"
      fill="#A56B46"
    ></path>
    <path
      d="M105.459,84.234a1.036,1.036,0,0,1-.4-1.992c4-1.67,8.976-1.028,10.886.056a1.035,1.035,0,1,1-1.021,1.8c-1.323-.75-5.605-1.393-9.067.055A1.037,1.037,0,0,1,105.459,84.234Z"
      transform="translate(-23.449 -25.821)"
      fill="#A56B46"
    ></path>
  </g>
  <g></g>
  <g id="f511194a-89ff-4d5f-beeb-d361e69a8096" data-name="Blue Pullover">
    <path
      d="M138.573,157.351c-6.051,2.76-17.11,4.52-29.539,5.26-2.5.15-5.05.26-7.63.32-4.1.119-8.26.119-12.37.02-2.781-.06-5.521-.18-8.21-.34-12.491-.74-23.691-2.5-29.971-5.26-.51-.221,2.8-8.4,3.85-11.91s5.14-4.2,5.14-4.2,10.16-2.01,15.41-3.32c4.731,3.36,14.311,9.44,19.36,9.44,4.81,0,13.291-6.44,17.75-9.94l.09.03c.63.19,1.46.4,2.41.631,5.4,1.319,14.719,3.159,14.719,3.159s4.09.7,5.141,4.2S139.073,157.121,138.573,157.351Z"
      transform="translate(-23.449 -25.821)" fill="#bdc3c7" ></path>
    <path
      d="M119.784,139.2c-9.25,7.28-19.38,14.679-24.63,14.679-6.43,0-21.92-10.25-27.451-14.25l2.182-.474c6.279,4.38,20.033,13.153,25.254,13.153,4.85,0,16.852-9.1,22.561-13.566C118.509,138.933,118.922,139.021,119.784,139.2Z"
      transform="translate(-23.449 -25.821)" fill="#2980b9" ></path>
  </g>
  <g>
    <path
      d="M66.758,92.468c.18,1.871.749,3.351-1.24,3.52S62.83,94.775,62.65,92.9s.236-3.523,2.221-3.69S66.581,90.6,66.758,92.468Z"
      transform="translate(-23.449 -25.821)"
      fill="#27ae60"
    ></path>
    <path
      d="M123.444,92.468c-.179,1.871-.749,3.351,1.24,3.52s2.69-1.213,2.869-3.085-.236-3.523-2.222-3.69S123.623,90.6,123.444,92.468Z"
      transform="translate(-23.449 -25.821)"
      fill="#27ae60"
    ></path>
    <path
      d="M95.144,163.351h-.991v-9.435c-.005-4.948-4.21-8.315-9.534-12.577-4.45-3.562-9.494-7.6-13.4-13.6-7.608-11.71-7.363-22.561-6.46-32.671l.987.087c-.887,9.938-1.13,20.6,6.305,32.043,3.815,5.871,8.792,9.855,13.184,13.371,5.313,4.252,9.9,7.926,9.905,13.35Z"
      transform="translate(-23.449 -25.821)"
      fill="#27ae60"
    ></path>
    <path
      d="M96.166,163.351h-.991v-9.435c0-5.426,4.591-9.1,9.9-13.352,4.393-3.515,9.37-7.5,13.185-13.37,7.429-11.436,7.188-22.1,6.306-32.043l.987-.087c.9,10.115,1.14,20.969-6.461,32.67-3.9,6.005-8.946,10.042-13.4,13.6-5.324,4.263-9.53,7.629-9.533,12.578Z"
      transform="translate(-23.449 -25.821)"
      fill="#27ae60"
    ></path>
  </g>
  <g>
    <path id="f378951f-335b-4af5-a2fc-463ba3b4035f" data-name="c"
          d="M109.775,110.212c3.539,3.149,6.386.2,6.386.2-1.149,4.871-7.423,2.6-11.25.949-.869-.383-1.619-.726-2.144-.949-2.847-1.2-3.533-.6-8.89-1-2.456-.184-5.342.845-8.236,1.881-3.42,1.228-6.841,2.463-9.56,1.707-5.014-1.4-.733-5.964-.733-5.964-1.363,3.2,1.363,4.17,5.677,2.774,4.241-1.379,6.215-6.243,10.883-5.7a9.757,9.757,0,0,0,6.21.167C102.063,103.093,106.737,107.509,109.775,110.212Z"
          transform="translate(-23.449 -25.821)" fill="#B55239" ></path>
    <path id="ac9623d4-6df9-4aec-bc27-d019eaac60bf" data-name="l"
          d="M93.452,104.535a9.759,9.759,0,0,1-1.544-.422c-4.688-.535-6.642,4.321-10.883,5.7a8.68,8.68,0,0,1-4.5.491c.016.017.029.035.045.051C82.615,112.813,89.051,105.325,93.452,104.535Z"
          transform="translate(-23.449 -25.821)" fill="#c75a3f" ></path>
    <path id="f4baf1d4-7f12-4e35-b1e0-e72fc7281c37" data-name="color"
          d="M96.819,121.328c-.28,1.056-.579,2.1-.888,3.149.173-1.057.337-2.119.48-3.18-.294-.021-.625-.041-.975-.056-.048.348-.1.694-.15,1.042-.209,1.639-.429,3.276-.507,4.928-.188-1.647-.233-3.311-.289-4.969-.011-.341-.01-.683-.018-1.024-.232,0-.464,0-.69.007a36.237,36.237,0,0,0,.2,4.952,36.594,36.594,0,0,1-.582-4.934,6.915,6.915,0,0,0-1.209.161s1.117,7.941,2.711,11.664c0,0,2.416-7.606,2.711-11.664C97.616,121.4,97.3,121.369,96.819,121.328Z"
          transform="translate(-23.449 -25.821)" fill="#B55239" ></path>
    <path id="e6874e8b-a487-4af6-8ef9-048c3ea8f5e4" data-name="lightem"
          d="M93.969,121.223c-.062,0-.126,0-.187,0a36.237,36.237,0,0,0,.2,4.952,36.594,36.594,0,0,1-.582-4.934,6.915,6.915,0,0,0-1.209.161s1.117,7.941,2.711,11.664c0,0,.105-.331.269-.873A68.788,68.788,0,0,1,93.969,121.223Z"
          transform="translate(-23.449 -25.821)" fill="#c75a3f" ></path>
    <path
      d="M93.036,105.424a3.555,3.555,0,0,1-.468,1.681,5.008,5.008,0,0,1-1.134,1.325,8.085,8.085,0,0,1-2.961,1.688l-.024-.056a9.042,9.042,0,0,0,2.647-1.971c.365-.409.647-.869.965-1.3s.615-.89.917-1.379Z"
      transform="translate(-23.449 -25.821)" fill="#ce5d41" ></path>
    <path
      d="M98.2,105.387a5.822,5.822,0,0,1,4.074,1.062,20.492,20.492,0,0,1,3.147,2.82A21.533,21.533,0,0,0,108.537,112a6.988,6.988,0,0,0,3.858,1.316v.059a7.149,7.149,0,0,1-4.019-1.123,21.918,21.918,0,0,1-3.289-2.634,39.99,39.99,0,0,0-3.155-2.674,7.036,7.036,0,0,0-3.733-1.5Z"
      transform="translate(-23.449 -25.821)" fill="#c3593e" ></path>
  </g>

</svg>
